<svg width="103" height="28" viewBox="0 0 103 28" fill="none" xmlns="http://www.w3.org/2000/svg">
<path d="M15.6596 27.1777C12.7496 27.1777 9.73305 27.1523 6.68105 27.1013L5.98903 27.0928C4.54287 27.0674 2.90154 27.0419 1.47313 26.9994C0.67464 26.974 0.018105 26.3712 0.000360849 25.607C-0.0173833 24.8174 0.621407 24.1721 1.44651 24.1467C1.44651 24.1467 1.44651 24.1467 1.45538 24.1467C1.75704 24.1382 1.95222 23.841 1.83688 23.5778C1.06501 21.8543 0.665768 19.9694 0.665768 18.0421C0.665768 15.045 1.62395 12.1752 3.43386 9.73848C4.99535 7.64135 7.08917 6.00271 9.51125 4.96688C9.54674 4.71217 9.59997 4.47444 9.67982 4.26218C9.95485 3.50653 10.3896 2.52165 11.2591 1.67261C12.3947 0.560366 13.9029 0 15.7483 0C17.6026 0 19.1286 0.577347 20.2731 1.70657C21.3378 2.75938 21.6926 3.95652 21.7991 4.415C21.8346 4.5933 21.8612 4.78858 21.879 5.01782C24.2744 6.07063 26.3327 7.70078 27.8676 9.78093C29.6598 12.2092 30.6091 15.062 30.6091 18.0421C30.6091 19.9779 30.2098 21.8712 29.438 23.6203C29.3315 23.8665 29.509 24.1467 29.7929 24.1552C29.8017 24.1552 29.8017 24.1552 29.8106 24.1552C30.6091 24.1806 31.2656 24.7834 31.2834 25.5476C31.3011 26.3372 30.6623 26.9825 29.8372 27.0079C28.3378 27.0504 26.6965 27.0843 24.8334 27.1183C21.7902 27.1692 18.8358 27.1947 16.0411 27.1947L15.6596 27.1777Z" fill="white"/>
<path d="M10.8868 6.0791L8.42038 7.26776L6.73468 8.49037L4.8538 10.4771L3.72704 12.2177L2.96404 13.9582L2.36074 16.5223L2.28976 18.8402L2.60916 20.9288L3.26569 23.2467L4.86267 25.5815H26.5461L27.7882 23.1618L28.6931 20.8184L29.0125 17.3119L28.4447 14.3487L27.451 12.0394L26.0315 9.99317L24.3103 8.30358L22.8287 7.08097L20.3356 6.21495L10.8868 6.0791Z" fill="#008BCA"/>
<path d="M28.7375 19.6213C28.8173 19.1203 28.773 18.6873 28.5867 18.2968C28.3471 17.8043 27.9124 17.4477 27.3623 17.2779C26.3065 16.9638 23.0948 15.2827 21.1075 14.1874C20.9478 14.0516 20.7969 13.9242 20.655 13.8139L20.6816 13.5167C20.9389 12.9818 21.143 12.4129 21.2938 11.8186C21.3293 11.7846 21.3648 11.7507 21.4002 11.7167C21.7906 11.3262 22.0745 10.7488 22.1455 10.2139C22.7133 9.22904 22.7666 8.08284 22.6069 7.25927L20.9744 6.29137C20.9744 6.29137 20.6994 6.22345 20.2912 6.12156C20.2291 6.10458 20.3888 6.30835 20.1493 7.14041C20.1138 7.25927 20.1138 8.49038 20.0783 8.62623C20.0251 8.81302 20.0694 9.96771 20.0073 10.1715C19.9718 10.2988 19.9097 11.1309 19.8742 11.2667C19.8121 11.4875 19.4661 12.2601 19.404 12.4894C19.3419 12.7101 19.1911 13.3554 19.1379 13.5846C19.0935 13.7629 19.1201 14.5695 19.0669 14.7478C18.9959 15.028 19.8831 14.7308 19.8033 15.0025C19.75 15.2063 20.6905 15.8091 20.8768 15.9025C22.4915 16.743 23.2545 17.0572 23.1658 16.9298L24.5765 17.7024C25.6766 18.2628 26.4485 18.4496 27.1316 18.7298C27.2026 18.9845 27.2647 19.4345 27.2647 20.0798L27.6018 21.4297L27.939 22.5929L28.4536 21.608L28.7907 19.9439L28.7375 19.6213Z" fill="#047FA6"/>
<path d="M5.61675 25.6155H6.31764C6.69914 25.6155 7.95011 25.5645 8.50905 25.5645C9.28979 25.5645 11.0287 25.6155 11.428 25.6155H12.2708C12.6346 25.6155 14.0275 25.5815 14.5509 25.5815C14.9147 25.5815 15.793 25.6155 15.9882 25.6155H16.8311C17.0529 25.6155 18.3127 25.5985 18.641 25.5985C19.1467 25.5985 20.2912 25.6155 20.5485 25.6155H22.1188C22.2342 25.6155 22.6689 25.6155 22.7842 25.6155H23.5206C23.7247 25.6155 24.3901 25.6155 24.5853 25.6155H25.3217C25.3749 25.6155 25.5878 25.6155 25.6411 25.6155H26.3242L26.8565 24.9957L27.8946 23.0514L27.2292 20.0288L27.1493 18.7637L24.3546 17.5241L21.7196 16.1402L19.9984 15.2912L19.0846 14.7648L12.2619 14.9091L11.9425 14.994L11.0465 15.5119L9.76001 16.3779L7.63071 17.1506L5.01345 18.3307L4.58759 18.7722V19.3071L4.47225 19.7911L3.47857 22.9835L3.38098 23.1872L4.86262 25.5985C5.17314 25.607 5.52803 25.6155 5.61675 25.6155Z" fill="#293F6E"/>
<path d="M24.47 21.99C24.47 21.99 24.3546 24.6135 25.5257 25.5559C25.6588 25.6663 23.6626 25.5559 23.6626 25.5559L23.7602 24.3248L24.47 21.99Z" fill="#203456"/>
<path d="M11.3037 7.53942L11.0553 6.36774L11.0997 4.6357L11.774 3.40459L12.954 2.22442L14.267 1.68104L16.0414 1.43481L17.461 1.70651L18.6055 2.25838L19.5725 3.23478L20.2646 4.28759L20.3533 5.6036L20.1581 7.15735L20.7614 6.90264L21.0098 7.20829L21.1163 8.11676L20.9921 8.94033L20.442 9.84881V10.5111L19.9718 10.8846L19.6613 11.878L19.058 13.4233L18.3216 14.2044L17.9401 14.6544L17.0529 15.5119L15.4736 15.5968L14.0097 15.1893L13.1137 14.2129L12.12 12.9733L11.5522 11.0205L11.1707 10.7743L10.8868 10.3922V9.80635L10.3722 8.62619L10.2923 7.53092L10.5851 6.96207L10.9666 7.00452L11.3037 7.53942Z" fill="#FFCDAF"/>
<path d="M20.9301 7.08098L20.2913 6.89419L20.3534 5.03479L19.9541 3.7018L18.8274 2.40277L17.6297 1.78297L15.8996 1.44336L14.6309 1.51128L14.0808 1.74901C16.8134 2.0292 18.9161 4.27066 17.0175 7.7687C17.0175 7.7687 16.4497 8.08284 15.9794 8.05737C15.9794 8.05737 15.8641 8.43944 16.2101 8.63472C16.2101 8.63472 16.7957 11.9884 15.3052 12.0648L14.622 11.9629L14.4091 11.8016C14.4091 11.8016 14.6131 12.3365 14.9414 12.3365C14.9414 12.3365 15.1721 12.6676 15.6867 12.6846C15.8197 12.6846 15.4116 13.1007 15.5891 13.0497C15.5891 13.0497 16.4319 13.1601 15.7576 13.9667C15.4737 13.9582 15.1721 13.8988 14.8527 13.7799C14.8083 13.7629 14.7728 13.8139 14.8083 13.8478C14.9325 13.9837 15.7488 13.9412 15.2253 14.3572C15.0656 14.4506 15.1366 14.595 15.2874 14.5695C15.3584 14.561 15.4205 14.5525 15.4915 14.5525C15.6157 14.5355 15.7665 14.6119 15.8907 14.6204L16.3255 15.5374L17.3812 15.2912L17.6918 14.9346L18.7475 14.8412L19.0936 14.4167L18.9693 13.211L19.5194 12.2346L19.9453 10.8167L20.2026 10.7064L20.5575 9.80639L21.072 8.50736L20.9301 7.08098Z" fill="#EBBBA1"/>
<path d="M15.2696 9.37346C15.2696 9.37346 15.2075 9.13573 15.2252 8.90649C15.2252 8.90649 14.9857 9.05083 14.8615 9.31403C14.6574 9.15271 14.2759 8.95744 13.8234 8.97442C13.3 8.9914 12.9274 9.22064 12.7144 9.30554C12.6612 9.32252 12.6612 9.39894 12.7144 9.41592C13.0161 9.52629 13.6904 9.74704 14.3735 9.6961C14.3735 9.6961 14.551 9.70459 14.7728 9.6961C14.8703 9.78949 15.0212 10.0102 14.9413 10.4008C14.8349 10.9017 14.3291 11.0121 14.2848 11.4791L14.267 11.5045C14.2404 11.5385 14.2049 11.5725 14.1606 11.6064C14.0807 11.6659 13.992 11.7083 13.8944 11.7593C13.7081 11.8527 13.504 11.9545 13.3355 12.1074C13.1669 12.2602 13.0516 12.4555 13.0072 12.6592C12.9628 12.863 12.9895 13.0668 13.0516 13.2536C13.0782 13.0583 13.1048 12.8715 13.1758 12.6932C13.2379 12.5234 13.3443 12.3706 13.4863 12.2432C13.6283 12.1159 13.8057 12.0055 13.9831 11.8866C14.0719 11.8272 14.1606 11.7593 14.2316 11.6744C14.2493 11.6574 14.2582 11.6404 14.267 11.6234C14.267 11.6489 14.2759 11.6828 14.2759 11.7168C14.3558 12.1413 14.4977 11.7168 14.4977 11.7168C14.4977 11.7168 14.4179 10.9187 15.2518 10.8932L15.2075 10.0527L15.2696 9.37346Z" fill="#EBBBA1"/>
<path d="M12.3152 8.73705C12.2709 8.75404 12.2265 8.70306 12.262 8.66907C12.4306 8.45666 12.8387 8.07431 13.5307 8.11679C14.1961 8.15927 14.2405 8.37169 14.7817 8.47365C14.9325 8.49914 14.9769 8.68607 14.8615 8.77103C14.7906 8.82201 14.6575 8.89848 14.5244 8.89848C14.0719 8.89848 13.8146 8.5926 13.3799 8.55862C13.0871 8.53313 12.7145 8.56711 12.3152 8.73705Z" fill="#EBBBA1"/>
<path d="M14.0541 11.5383C14.0541 11.5808 14.0541 11.6317 14.0364 11.6742C14.0186 11.7166 13.992 11.7591 13.9565 11.793C13.8944 11.861 13.8146 11.9119 13.7347 11.9629C13.575 12.0562 13.4242 12.1327 13.3 12.2345C13.1758 12.3364 13.0693 12.4638 13.0072 12.6081C12.9362 12.7525 12.8919 12.9223 12.8564 13.0921C12.8209 12.9223 12.8209 12.7355 12.8741 12.5572C12.9274 12.3789 13.0338 12.2091 13.1847 12.0902C13.3355 11.9713 13.5129 11.8949 13.6726 11.827C13.7525 11.793 13.8323 11.7591 13.9033 11.7166C13.9388 11.6912 13.9654 11.6657 13.992 11.6402L14.0098 11.6147C14.0186 11.6063 14.0187 11.5978 14.0275 11.5893C14.0364 11.5808 14.0453 11.5638 14.0541 11.5383Z" fill="#272A24"/>
<path d="M17.2481 11.5383C17.257 11.5553 17.2659 11.5808 17.2747 11.5978C17.2836 11.6063 17.2836 11.6147 17.2925 11.6232L17.3102 11.6487C17.3368 11.6827 17.3634 11.7081 17.3989 11.7251C17.4699 11.7676 17.5498 11.8015 17.6296 11.8355C17.7893 11.9034 17.9667 11.9713 18.1176 12.0987C18.2684 12.2176 18.3837 12.3874 18.4281 12.5657C18.4813 12.744 18.4813 12.9223 18.4458 13.1006C18.4103 12.9308 18.366 12.761 18.295 12.6166C18.224 12.4638 18.1264 12.3449 18.0022 12.243C17.878 12.1412 17.7183 12.0647 17.5675 11.9713C17.4877 11.9204 17.4078 11.8695 17.3457 11.8015C17.3102 11.7676 17.2836 11.7251 17.2659 11.6827C17.2481 11.6317 17.2392 11.5808 17.2481 11.5383Z" fill="#272A24"/>
<path d="M15.7044 12.4808C15.4205 12.4808 15.2608 12.345 15.1543 12.2601C15.1011 12.2176 15.0745 12.1922 15.0567 12.1922C14.6752 12.1837 14.4091 12.0224 14.3204 11.7592C14.2671 11.6148 14.3825 11.428 14.4889 11.3007C14.4978 11.2837 14.5155 11.2837 14.5244 11.2837C14.5333 11.2837 14.551 11.2922 14.5599 11.3007C14.5688 11.3092 14.5688 11.3177 14.5688 11.3261C14.5599 11.479 14.5688 11.5978 14.6043 11.6743C14.6752 11.8186 14.8349 11.9035 15.0745 11.912C15.1987 11.912 15.2786 11.9799 15.3584 12.0478C15.4471 12.1242 15.5447 12.2007 15.7222 12.2007C15.8907 12.2007 15.9706 12.1327 16.0504 12.0733C16.1214 12.0224 16.2013 11.9629 16.3077 11.9629H16.3343C16.5295 11.9629 16.6804 11.8865 16.7957 11.7422C16.8489 11.6658 16.8844 11.5469 16.8933 11.3686C16.8933 11.3431 16.9199 11.3346 16.9377 11.3346C16.9465 11.3346 16.9643 11.3346 16.9731 11.3601C17.053 11.5129 17.1417 11.7252 17.0619 11.8695C16.9377 12.1158 16.6715 12.2601 16.3432 12.2601C16.3343 12.2601 16.3077 12.2601 16.3077 12.2601H16.2989C16.2811 12.2686 16.2634 12.2856 16.2279 12.311C16.1214 12.362 15.9706 12.4808 15.7044 12.4808Z" fill="#272A24"/>
<path d="M15.1365 11.2498C15.172 11.0715 15.1898 10.8932 15.1986 10.7149C15.1986 10.5366 15.1898 10.3668 15.1809 10.1885C15.172 10.0102 15.1543 9.83186 15.1631 9.64507C15.172 9.45828 15.1898 9.27149 15.2607 9.10168C15.2785 9.28847 15.3051 9.45828 15.3317 9.63658C15.3583 9.81488 15.3849 9.99318 15.3938 10.18C15.4027 10.3668 15.4027 10.5535 15.3672 10.7403C15.3317 10.9186 15.2607 11.1054 15.1365 11.2498Z" fill="#272A24"/>
<path d="M12.2797 8.48227C12.2353 8.49927 12.191 8.44828 12.2265 8.4143C12.395 8.21887 12.7854 7.94697 13.4863 7.99795C14.1606 8.04893 14.2049 8.25286 14.7639 8.35482C14.9147 8.38031 14.9946 8.47378 14.8703 8.55025C14.7994 8.60123 14.7106 8.63522 14.5776 8.62672C14.1162 8.61822 13.8944 8.3973 13.4508 8.34632C13.1492 8.32933 12.6878 8.33783 12.2797 8.48227Z" fill="#272A24"/>
<path d="M12.2708 13.4062V14.5949L13.8678 15.2911L13.0871 14.0515L12.2708 13.4062Z" fill="#EBBBA1"/>
<path d="M11.3925 7.78574L10.9666 6.94519L10.4609 7.03858L10.2923 7.65838L10.2568 8.6093L10.9577 9.8489L10.8868 10.5196L11.5167 10.8677L11.3747 9.91682L11.4191 8.51591L11.3925 7.78574Z" fill="#EBBBA1"/>
<path d="M12.2708 14.7648L12.6701 18.577L14.409 18.4496L14.1606 17.6175L14.3558 17.2355L15.5624 15.911L13.7791 15.2148L12.2708 14.7648Z" fill="white"/>
<path d="M14.1073 1.84241C14.1073 1.84241 11.0287 3.43011 11.3038 6.73287L11.0465 6.35929L10.9666 5.3829L11.3747 4.0584L12.4305 2.6405L13.4331 1.84241H14.1073V1.84241Z" fill="white"/>
<path d="M6.85 20.2496C6.81451 20.827 7.10729 24.4269 6.53948 25.0722C6.45075 25.1741 6.20234 25.3524 5.95392 25.5306C5.62565 25.7599 7.63074 25.641 7.63074 25.641L7.42668 23.3826L6.85 20.2496Z" fill="#203456"/>
<path d="M12.0757 15.2062C12.0757 15.2062 10.39 16.1572 9.62701 17.8977L9.39633 17.643L9.84881 16.7005L10.5852 15.843L11.8273 15.1383L12.0757 15.2062Z" fill="white"/>
<path d="M9.80444 16.5223C9.80444 16.5223 5.13769 18.4156 4.96912 18.8826C4.80055 19.3496 4.96912 19.6637 4.96912 19.6637L4.52551 19.1288L4.66747 18.6703L5.38611 18.1439L6.93874 17.3968L9.38745 16.361L9.68023 16.3779L9.80444 16.5223Z" fill="white"/>
<path d="M12.5814 9.14441L13.3532 8.90649L14.1872 9.03395L14.2937 9.33134L13.8235 9.37382H13.2113L12.5814 9.14441Z" fill="white"/>
<path d="M14.6663 9.32294C14.5155 9.1615 14.1074 8.81312 13.5662 8.83861C13.0428 8.8726 12.6879 9.03404 12.475 9.12751C12.4217 9.153 12.4217 9.22098 12.4838 9.23797C12.7855 9.33993 13.4686 9.53537 14.1518 9.46739L13.9211 9.58635C13.8945 9.59485 13.9122 9.63733 13.9388 9.62883C14.0985 9.61184 14.4002 9.56086 14.6575 9.4419C14.693 9.41641 14.7018 9.35693 14.6663 9.32294ZM13.0517 9.08502C13.1049 9.05953 13.1936 9.02554 13.3089 8.99155C13.3267 8.98306 13.3444 9.00005 13.3356 9.01705C13.3267 9.04254 13.3267 9.06803 13.3267 9.09352C13.3267 9.153 13.3444 9.20398 13.371 9.24647C13.3799 9.25496 13.371 9.26346 13.3622 9.26346C13.2557 9.23797 13.1404 9.19548 13.0428 9.136C13.025 9.136 13.025 9.10202 13.0517 9.08502ZM14.2405 9.27196C14.1873 9.28895 14.0897 9.30595 13.9743 9.31444C13.9566 9.31444 13.9477 9.29745 13.9566 9.28895C14.0009 9.22947 14.0187 9.1615 14.0187 9.08502C14.0187 9.07652 14.0187 9.05953 14.0187 9.05103C14.0985 9.09352 14.1784 9.1445 14.2582 9.21248C14.276 9.22947 14.2671 9.26346 14.2405 9.27196Z" fill="#272A24"/>
<path d="M18.7741 9.13591L18.0111 8.90649L17.1682 9.03395L17.0706 9.33134L17.532 9.37382H18.153L18.7741 9.13591Z" fill="white"/>
<path d="M16.7513 9.45023C17.0086 9.56918 17.3014 9.62016 17.4699 9.63716C17.4965 9.63716 17.5054 9.60317 17.4877 9.59467L17.257 9.47572C17.9402 9.54369 18.6233 9.34827 18.925 9.24631C18.9782 9.22931 18.9782 9.15284 18.925 9.13585C18.7209 9.05088 18.366 8.88094 17.8337 8.85545C17.2925 8.82996 16.8844 9.17833 16.7336 9.33977C16.6892 9.36526 16.7069 9.42474 16.7513 9.45023ZM18.3483 9.14434C18.2507 9.20382 18.1442 9.2463 18.0289 9.2718C18.02 9.2718 18.0111 9.2633 18.0111 9.2548C18.0377 9.21232 18.0555 9.15284 18.0555 9.10186C18.0555 9.07637 18.0555 9.05088 18.0466 9.02539C18.0466 9.00839 18.0555 8.9914 18.0732 8.9999C18.1886 9.02539 18.2773 9.06787 18.3305 9.08487C18.366 9.09336 18.366 9.12735 18.3483 9.14434ZM17.1417 9.21232C17.2215 9.14434 17.3014 9.08487 17.3812 9.05088C17.3812 9.05938 17.3812 9.07637 17.3812 9.08487C17.3812 9.16134 17.399 9.22931 17.4433 9.28879C17.4522 9.29729 17.4433 9.31428 17.4256 9.31428C17.3102 9.30578 17.2126 9.28879 17.1594 9.2718C17.1239 9.2633 17.115 9.22931 17.1417 9.21232Z" fill="#272A24"/>
<path d="M15.7309 13.1859C16.423 13.1859 16.7157 13.2879 17.0351 13.2879C17.3102 13.2879 17.5763 13.152 17.5763 13.152C17.6384 13.1944 17.7538 13.118 17.7715 13.0585C17.7893 12.9905 17.5586 12.8036 17.5408 12.897C17.5231 12.9905 17.319 13.1095 17.186 13.1095C17.044 13.1095 16.627 12.8036 16.3342 12.7866C16.2012 12.7781 15.9616 12.8376 15.8285 12.8716C15.7664 12.8886 15.7043 12.8886 15.6333 12.8716C15.5003 12.8376 15.2607 12.7781 15.1276 12.7866C14.8349 12.8036 14.4179 13.1095 14.2759 13.1095C14.134 13.1095 13.9388 12.9905 13.921 12.897C13.9033 12.8036 13.6726 12.9905 13.6904 13.0585C13.7081 13.1265 13.8323 13.1944 13.8856 13.152C13.8856 13.152 14.1517 13.2879 14.4267 13.2879C14.7461 13.2879 15.0389 13.1859 15.7309 13.1859Z" fill="#272A24"/>
<path d="M16.9287 13.5253C16.9553 13.4999 16.9198 13.4574 16.8843 13.4744C16.4851 13.6358 16.0947 13.6868 15.7576 13.6783C15.4204 13.6868 15.0389 13.6443 14.6574 13.4914C14.6131 13.4744 14.5776 13.5253 14.6131 13.5593C14.7461 13.6953 14.9768 13.8907 15.314 13.9927C15.2962 14.0012 15.2696 14.0012 15.2519 14.0097C15.1809 14.0351 15.1188 14.0691 15.0478 14.1031C14.8881 14.1966 14.9325 14.2221 15.0833 14.1966C15.1543 14.1881 15.2164 14.1711 15.2873 14.1626C15.4204 14.1456 15.5535 14.1371 15.6866 14.1371C15.8197 14.1371 15.9528 14.1456 16.0858 14.1626C16.1834 14.1711 16.281 14.1881 16.3875 14.2136C16.423 14.2221 16.4407 14.1796 16.4141 14.1626C16.3343 14.1031 16.2455 14.0521 16.1479 14.0181C16.5294 13.8992 16.7956 13.6613 16.9287 13.5253Z" fill="#272A24"/>
<path d="M10.2569 18.8402L9.32533 18.6534C9.13014 18.611 9.03255 18.4072 9.13014 18.2459L9.39631 17.762L9.75119 17.9063L10.8336 18.3053L10.6295 18.6789L10.2569 18.8402Z" fill="#203456"/>
<path d="M15.4027 16.2676C15.0478 16.5393 14.7284 16.8449 14.4711 17.193C14.3292 17.3713 14.3026 17.6091 14.3824 17.8213L14.6574 18.5175L16.6803 18.4921L17.0085 17.8468C17.1239 17.6175 17.0973 17.3459 16.9376 17.1506C16.6537 16.8025 16.2899 16.5223 15.8907 16.2506C15.7398 16.1572 15.5358 16.1657 15.4027 16.2676Z" fill="#BF3F4A"/>
<path d="M4.37466 20.1138C4.37466 20.1138 4.97796 20.5468 5.11104 21.6166C5.24412 22.6863 5.51028 20.9883 5.19976 20.3854C4.88924 19.7826 4.59646 19.6553 4.59646 19.6553L4.37466 20.1138Z" fill="#203456"/>
<path d="M15.6422 16.31C15.6422 16.31 16.4939 17.21 16.4407 17.6939C16.3786 18.1779 15.7753 18.509 15.7753 18.509H16.8311L17.319 17.6005L16.7246 16.8958C16.7246 16.8958 16.1568 16.3949 16.1302 16.3694C16.0947 16.3439 15.6511 16.1826 15.6511 16.1826V16.31H15.6422Z" fill="#A43447"/>
<path d="M19.1201 8.48227C19.1645 8.49927 19.2088 8.44828 19.1734 8.4143C19.0048 8.21887 18.6144 7.94697 17.9135 7.99795C17.2392 8.04893 17.1949 8.25286 16.6359 8.35482C16.4851 8.38031 16.4053 8.47378 16.5295 8.55025C16.6005 8.60123 16.6892 8.63522 16.8223 8.62672C17.2836 8.61822 17.5054 8.3973 17.949 8.34632C18.2507 8.32933 18.712 8.33783 19.1201 8.48227Z" fill="#272A24"/>
<path d="M8.37597 25.5052C9.15671 25.5052 10.8956 25.5562 11.2949 25.5562H12.1377C12.5015 25.5562 13.8944 25.5222 14.4179 25.5222C14.7816 25.5222 15.66 25.5562 15.8551 25.5562H16.698C16.9198 25.5562 18.1796 25.5392 18.5079 25.5392C19.0136 25.5392 20.1581 25.5562 20.4154 25.5562H21.9858C22.1011 25.5562 22.5358 25.5562 22.6512 25.5562H23.3876C23.4674 25.5562 23.636 25.5562 23.8134 25.5562L24.6119 20.411L24.7361 19.7063L23.9997 19.1969L18.9515 18.5856L14.7195 18.4497L11.7651 18.5856L8.74859 18.8827L7.11613 19.4431L6.9032 20.0544L7.67507 25.5137C7.95011 25.5137 8.19852 25.5052 8.37597 25.5052Z" fill="#E0DFDC"/>
<path d="M16.8932 18.4156L18.7652 18.577L18.9072 16.9977L19.0935 14.7648L17.665 14.9855L15.935 15.9789L17.4078 17.643L16.8932 18.4156Z" fill="white"/>
<path d="M18.295 18.6619C18.295 18.6619 22.3318 19.3666 22.5536 21.2684C22.7399 22.9071 22.039 24.6901 18.2329 25.5985C17.3723 25.8023 23.7513 25.5476 23.7513 25.5476L24.5676 20.3939L24.5055 19.5618L23.4674 19.0185L20.1315 18.7213L18.295 18.6619Z" fill="#C3C3C3"/>
<path d="M18.4458 18.5771C18.4458 18.5771 7.48883 19.078 6.90327 20.0629L6.85004 19.6723L7.16943 19.3752L8.11874 19.1374L10.2037 18.8827L13.5396 18.5601L16.6892 18.5261L18.4458 18.5771Z" fill="white"/>
<path d="M15.8374 23.6881C16.4744 23.6881 16.9908 23.2661 16.9908 22.7457C16.9908 22.2252 16.4744 21.8032 15.8374 21.8032C15.2004 21.8032 14.6841 22.2252 14.6841 22.7457C14.6841 23.2661 15.2004 23.6881 15.8374 23.6881Z" fill="#C3C3C3"/>
<path d="M20.6195 18.5601L21.7728 18.2629C21.968 18.2205 22.0656 18.0167 21.968 17.8554L21.7019 17.3715L21.347 17.5158L20.3533 17.9828V18.3054L20.6195 18.5601Z" fill="#203456"/>
<path d="M15.8552 23.8834C15.1543 23.8834 14.551 23.4334 14.4534 22.839C14.4001 22.5249 14.551 22.2787 14.6929 22.1258C14.9679 21.8117 15.447 21.5909 15.8552 21.5909C16.2633 21.5909 16.7335 21.8117 17.0174 22.1258C17.1505 22.2787 17.3102 22.5249 17.257 22.839C17.1594 23.4334 16.5561 23.8834 15.8552 23.8834ZM15.8552 21.8966C15.5446 21.8966 15.2519 22.0155 15.0655 22.2192C14.9058 22.3806 14.8349 22.5843 14.8526 22.7881C14.897 23.2381 15.3317 23.5777 15.8552 23.5777C16.3786 23.5777 16.8134 23.2381 16.8577 22.7881C16.8755 22.5843 16.8045 22.3806 16.6448 22.2192C16.4585 22.0155 16.1657 21.8966 15.8552 21.8966Z" fill="#272A24"/>
<path d="M29.7933 25.4202C28.844 25.3947 27.8946 25.3693 26.9453 25.3523C28.4802 23.1872 29.2876 20.6741 29.2876 18.0421C29.2876 15.3252 28.427 12.7186 26.7945 10.5111C25.2241 8.3885 23.0682 6.78382 20.5485 5.84988C20.584 5.34895 20.5752 4.95839 20.513 4.6782C20.4509 4.39802 20.1848 3.43012 19.3331 2.58957C18.4458 1.71506 17.2481 1.27356 15.7665 1.27356C14.2937 1.27356 13.1048 1.70657 12.2354 2.55561C11.5433 3.23484 11.1885 4.04992 10.9578 4.6782C10.8513 4.97537 10.807 5.35744 10.8425 5.82441C8.30503 6.74137 6.13137 8.34605 4.54326 10.4771C2.89305 12.6931 2.02358 15.3082 2.02358 18.0421C2.02358 20.6826 2.83094 23.1957 4.36582 25.3608C3.49635 25.3778 2.37847 25.4032 1.509 25.4287C1.30494 25.4372 1.30494 25.7259 1.509 25.7259C3.15921 25.7768 5.07559 25.8023 6.7258 25.8278C9.74231 25.8787 12.7588 25.9042 15.7753 25.9042C18.7919 25.9042 21.8084 25.8787 24.8249 25.8278C26.484 25.8023 28.1519 25.7683 29.811 25.7174C29.9885 25.7174 29.9973 25.4287 29.7933 25.4202ZM20.4687 6.4527C20.4776 6.41873 20.513 6.39326 20.5485 6.41024C25.4637 8.31209 28.7464 12.9394 28.7464 18.0421C28.7464 19.3496 28.5334 20.6147 28.1253 21.8203C28.081 21.9561 27.8769 21.9477 27.8503 21.8118L27.4067 19.8251C27.3801 19.7147 27.3801 19.5958 27.3978 19.4769C27.4422 19.2307 27.4422 19.01 27.3623 18.8402C27.2825 18.6789 27.1494 18.5685 26.9542 18.5175C25.375 18.0421 20.6373 15.427 20.2912 15.2402C20.0694 15.0365 19.8476 14.8582 19.6436 14.7138C19.3863 14.5355 19.2443 14.2469 19.271 13.9497L19.3508 13.1771C19.6258 12.6507 19.8831 11.9884 20.0517 11.1818C20.0694 11.0884 20.1404 11.0035 20.2291 10.9696C20.3001 10.9356 20.3622 10.8932 20.4155 10.8422C20.655 10.6045 20.8147 10.1885 20.797 9.95923C20.797 9.8913 20.8147 9.81489 20.8591 9.75546C21.4091 8.94887 21.3825 7.87059 21.2139 7.27626C21.1341 7.01306 21.0099 6.84325 20.8413 6.78382C20.7171 6.73288 20.584 6.73288 20.4598 6.78382C20.4421 6.79231 20.4332 6.78382 20.4332 6.78382C20.4332 6.78382 20.4243 6.77533 20.4243 6.75835C20.4421 6.63948 20.4509 6.54609 20.4687 6.4527ZM20.1049 18.4072L20.2469 18.5175C20.0251 18.4921 19.7944 18.4751 19.5726 18.4581C19.5282 18.4581 19.4129 18.4496 19.2621 18.4326C19.1201 18.4241 19.0225 18.3053 19.0314 18.1779C19.129 16.9383 19.1734 15.9195 19.2 15.3082C19.2088 15.1044 19.4573 14.994 19.6258 15.1214C19.8122 15.2657 20.0517 15.4695 20.3179 15.7327C21.0454 16.4374 21.4801 17.0317 21.56 17.2525L20.167 17.8977C19.963 17.9996 19.9275 18.2713 20.1049 18.4072ZM20.3001 7.42909C20.3179 7.38664 20.513 7.01306 20.7082 7.08947C20.7526 7.10646 20.8236 7.19985 20.8679 7.36117C21.0099 7.8621 21.0809 8.91491 20.4598 9.69602C20.4332 9.72999 20.4155 9.78093 20.4243 9.82338C20.4509 9.96772 20.3356 10.4092 20.1493 10.5875C20.2025 10.18 20.238 9.76395 20.2469 9.33094C20.2469 9.22056 20.3179 9.11868 20.4243 9.08472L20.4332 9.07623C20.513 9.05075 20.5663 8.96585 20.5485 8.88095C20.4864 8.55831 20.6284 8.17624 20.7171 7.98097C20.7349 7.93851 20.726 7.88757 20.6816 7.8621C20.6639 7.84512 20.6373 7.84512 20.6195 7.84512C20.5929 7.84512 20.5752 7.85361 20.5574 7.87059C20.4864 7.92153 20.4155 7.97248 20.3356 8.02342C20.309 8.0404 20.2735 8.0404 20.2469 8.02342C20.2203 8.00644 20.2025 7.98097 20.2025 7.947C20.2114 7.80267 20.2469 7.63286 20.3001 7.42909ZM11.2772 4.79707C11.5966 3.93105 12.4483 1.62167 15.7487 1.62167C17.1328 1.62167 18.2418 2.0292 19.058 2.83579C19.8388 3.60842 20.0872 4.49991 20.1404 4.75462C20.2912 5.42536 20.0694 6.74137 19.9275 7.47154C19.9009 7.5989 19.8831 7.70927 19.8654 7.78569C19.8388 7.89606 19.8388 8.00644 19.8476 8.11681C19.8476 8.15926 19.8565 8.20172 19.8565 8.23568C19.9896 9.8913 19.6791 11.2413 19.3952 12.0733C19.3153 12.3196 19.2177 12.5658 19.1113 12.795L19.0758 12.8629C18.854 13.3299 18.5257 13.678 18.295 13.8903C18.2861 13.8988 18.2773 13.8988 18.2684 13.8903C18.2595 13.8903 18.2507 13.8818 18.2507 13.8733C18.2507 13.8054 18.2595 13.729 18.2595 13.6441C18.2595 13.6016 18.2418 13.5592 18.1974 13.5422C18.1353 13.5167 18.0643 13.5422 18.0466 13.6016C17.878 14.094 17.4078 15.2233 16.7779 15.2233C16.3254 15.2233 16.2189 15.011 16.1125 14.7987C16.0326 14.6289 15.9439 14.4591 15.6778 14.4591C15.3761 14.4591 15.2696 14.6629 15.172 14.8582C15.0656 15.0704 14.9591 15.2657 14.6131 15.2657C14.6042 15.2657 14.6042 15.2657 14.5954 15.2657C14.0009 15.2572 13.5041 14.0686 13.3178 13.5591C13.3 13.5167 13.2645 13.4912 13.2113 13.4912C13.2024 13.4912 13.1936 13.4912 13.1936 13.4912C13.1403 13.4997 13.1048 13.5422 13.1048 13.6016C13.1048 13.6356 13.1048 13.6695 13.1137 13.7035C13.1137 13.729 13.096 13.7374 13.0871 13.7374C13.0782 13.7374 13.0605 13.7459 13.0427 13.729C12.7854 13.5167 12.4306 13.1771 12.2265 12.778C11.9071 12.0564 11.703 11.2413 11.6143 10.3583C11.5256 9.46678 11.5877 8.69416 11.6232 8.32058C11.6321 8.23568 11.6409 8.15926 11.6587 8.07436C11.6676 7.98946 11.6676 7.90455 11.6321 7.81965C11.6232 7.78569 11.6055 7.74323 11.5877 7.70078C11.4369 7.25928 10.9667 5.6546 11.2772 4.79707ZM18.6765 16.3185L17.7982 17.3798C17.7272 17.4647 17.5941 17.4562 17.5409 17.3713C17.2392 16.9383 16.8311 16.5647 16.3343 16.2251C16.2811 16.1912 16.2988 16.1063 16.3698 16.0978C16.9465 16.0129 17.4522 15.7412 17.745 15.3931C17.9756 15.3167 18.2329 15.2148 18.4725 15.1129C18.641 15.045 18.8185 15.1638 18.8185 15.3336C18.8185 15.5034 18.783 15.9365 18.7652 16.1317C18.7386 16.2082 18.712 16.2676 18.6765 16.3185ZM18.7386 17.1081C18.7209 17.4647 18.6854 17.9062 18.641 18.3987C18.2861 18.3732 17.9579 18.3562 17.9046 18.3477C17.6562 18.3392 17.4078 18.3307 17.1594 18.3223C17.2304 18.2034 17.3013 18.0845 17.3457 18.0081C17.3812 17.9572 17.4522 17.9402 17.5054 17.9911C17.6296 18.11 17.8337 18.093 17.9401 17.9572L18.6055 17.0657C18.6499 17.0062 18.7386 17.0402 18.7386 17.1081ZM13.8945 17.4647C13.8412 17.5411 13.7259 17.5411 13.6638 17.4732L12.7322 16.4714C12.6346 16.361 12.5725 16.2336 12.5636 16.0893C12.537 15.8006 12.5193 15.5204 12.5015 15.2657C12.4927 15.1384 12.6435 15.0535 12.7588 15.1129C13.0782 15.2912 13.5041 15.4865 14.0009 15.6138C14.2405 15.8006 14.6397 15.9789 14.9946 16.0468C15.0833 16.0638 15.1099 16.1657 15.0478 16.2251C14.5954 16.6242 14.205 17.0402 13.8945 17.4647ZM14.2671 18.3223C14.1163 18.3307 13.9654 18.3307 13.8146 18.3392C13.7081 18.3477 13.2379 18.3732 12.8298 18.3987C12.7943 17.9996 12.7588 17.5072 12.7322 17.2525C12.7322 17.2015 12.8032 17.1761 12.8387 17.2185L13.4952 18.0081C13.6283 18.1609 13.8678 18.1694 14.0098 18.0251C14.0453 17.9826 14.1163 17.9911 14.1429 18.0421L14.2671 18.3223ZM11.011 18.1609L9.70682 17.7619C9.56487 17.7194 9.50277 17.5666 9.58262 17.4393C10.0528 16.6751 10.6828 15.9365 11.5877 15.4185C11.8361 15.2742 12.1555 15.427 12.1821 15.7072C12.2354 16.4119 12.3418 17.2864 12.4572 18.1355C12.4749 18.2883 12.3596 18.4241 12.1999 18.4411C12.191 18.4411 12.1821 18.4411 12.1733 18.4411C11.8361 18.4666 11.4901 18.5006 11.153 18.5345C11.2417 18.4072 11.1796 18.2119 11.011 18.1609ZM12.4217 13.9922L12.4039 13.8054C12.6257 14.1025 12.8919 14.4082 13.2113 14.6969C13.3 14.7733 13.371 14.8582 13.4331 14.9516C13.1048 14.7987 12.8475 14.6204 12.679 14.4761C12.5282 14.3572 12.4306 14.1789 12.4217 13.9922ZM14.6397 17.3289C14.8793 17.0147 15.1632 16.743 15.4914 16.4883C15.6156 16.3949 15.802 16.3864 15.935 16.4714C16.2988 16.7091 16.6271 16.9723 16.8844 17.2864C17.0352 17.4647 17.0529 17.7109 16.9465 17.9232L16.7513 18.3053C16.423 18.2968 16.0947 18.2968 15.7753 18.2968C15.4293 18.2968 15.0744 18.3053 14.7284 18.3053L14.5687 17.8977C14.48 17.7109 14.5155 17.4987 14.6397 17.3289ZM18.5434 14.6289C18.437 14.6714 18.3394 14.7054 18.2329 14.7393C18.2329 14.7393 18.2329 14.7308 18.224 14.7308C18.224 14.7308 18.224 14.7308 18.2152 14.7223C18.3749 14.5695 18.6322 14.2978 18.9072 13.8903L18.8717 14.1789C18.8717 14.3827 18.7386 14.5525 18.5434 14.6289ZM11.3038 7.99795C11.2949 8.02342 11.2772 8.0404 11.2594 8.04889C11.2328 8.05738 11.2062 8.05738 11.1796 8.04889C11.082 7.99795 10.9933 7.93851 10.9134 7.87059C10.8779 7.84512 10.8247 7.84512 10.7892 7.87059C10.7537 7.89606 10.736 7.947 10.7537 7.98097C10.8513 8.19323 10.9933 8.59227 10.9134 8.9234C10.8957 8.99132 10.94 9.05924 11.011 9.07623C11.0199 9.07623 11.0199 9.07623 11.0288 9.07623C11.1264 9.11019 11.1973 9.20358 11.1973 9.30547C11.1973 9.67055 11.2062 10.0441 11.2417 10.4007C11.2506 10.4602 11.2506 10.5111 11.2594 10.5705C11.2594 10.579 11.2506 10.5875 11.2506 10.5875C11.2417 10.5875 11.2328 10.5875 11.224 10.579C11.0376 10.4007 10.9312 9.95074 10.9489 9.8064C10.9578 9.75546 10.94 9.713 10.9134 9.67055C10.3013 8.88944 10.3634 7.83663 10.5142 7.34419C10.5585 7.18287 10.6295 7.08948 10.6739 7.07249C10.6916 7.064 10.7094 7.064 10.7271 7.064C10.9134 7.064 11.0731 7.41211 11.082 7.41211C11.1441 7.57343 11.2683 7.89606 11.3038 7.99795ZM2.53816 18.0421C2.53816 12.9139 5.83859 8.27813 10.7981 6.39326C10.8425 6.37628 10.8957 6.40175 10.9046 6.4527C10.9134 6.52062 10.9312 6.60552 10.94 6.67345C10.9489 6.72439 10.9046 6.76684 10.8513 6.75835C10.7537 6.74137 10.6561 6.74986 10.5585 6.78382C10.39 6.85174 10.2658 7.02155 10.1859 7.27626C10.0085 7.87059 9.98186 8.90642 10.5142 9.72149C10.5763 9.8064 10.6029 9.91677 10.6029 10.0187C10.594 10.2734 10.7715 10.63 10.9933 10.8422C11.0465 10.8932 11.1086 10.9356 11.1707 10.9696C11.2772 11.0205 11.3482 11.1139 11.3659 11.2158C11.4546 11.7507 11.6143 12.4469 12.0136 13.1771L12.0845 14.145C12.1112 14.4506 11.9515 14.7393 11.6853 14.9006C11.1973 15.1893 10.7626 15.5034 10.3811 15.86C9.13901 16.3355 5.17318 17.8808 4.62311 18.4157C4.35695 18.6704 4.32146 18.9251 4.40131 19.1968C4.35695 19.443 4.06417 20.8269 3.56733 22.2278C3.52297 22.3467 3.3544 22.3467 3.31004 22.2278C2.80433 20.9033 2.53816 19.4939 2.53816 18.0421ZM4.79168 25.0551C4.41905 24.5372 4.09078 23.9853 3.80688 23.4165C3.68267 23.1703 3.67379 22.8901 3.77139 22.6354C4.13514 21.659 4.41018 20.6401 4.56988 19.9779C4.59649 19.876 4.72957 19.859 4.78281 19.9439C4.97799 20.2411 5.19092 20.5637 5.31513 20.9458C5.33288 21.0052 5.4216 20.9882 5.4216 20.9288C5.40385 20.5892 5.33288 20.1137 5.08446 19.7656C4.69409 19.2307 4.561 18.9336 4.86266 18.6449C5.23528 18.2883 7.66624 17.2779 9.44953 16.5732C9.556 16.5308 9.64472 16.6497 9.58262 16.7346C9.36968 17.0317 9.18337 17.3544 9.03254 17.694C8.97931 17.7874 9.03254 17.8977 9.13901 17.9317L10.4432 18.3307C10.594 18.3817 10.5763 18.5939 10.4166 18.6109C9.42292 18.7298 8.42924 18.8826 7.45331 19.0609C7.23151 19.1034 7.02745 19.2137 6.8855 19.3751C6.70805 19.5873 6.64595 19.8505 6.69918 20.1137L7.47993 25.2929C7.22264 25.2929 6.97422 25.3014 6.71693 25.3014C6.27332 25.3098 5.82972 25.3183 5.37724 25.3268C5.13769 25.3438 4.92476 25.2419 4.79168 25.0551ZM7.83481 25.3014L7.03632 20.0543C7.00083 19.8845 7.04519 19.7147 7.1694 19.5873C7.24925 19.4939 7.37346 19.4345 7.50654 19.409C10.2392 18.8996 13.0161 18.6364 15.7753 18.6364C18.5346 18.6364 21.3115 18.8911 24.0441 19.409C24.1772 19.4345 24.3014 19.5024 24.3813 19.5873C24.4966 19.7147 24.5499 19.8845 24.5144 20.0543L23.6272 25.3014C21.001 25.2674 18.3749 25.2419 15.7487 25.2419C13.1137 25.2419 10.4698 25.2589 7.83481 25.3014ZM24.3192 25.3098C24.1417 25.3098 24.0175 25.157 24.0441 24.9957L24.8604 20.1222C24.9225 19.842 24.8338 19.5619 24.6297 19.3411C24.4966 19.1968 24.3103 19.1119 24.1063 19.0694C23.1214 18.8826 22.1278 18.7383 21.1341 18.6194C20.9744 18.6024 20.8236 18.5345 20.6994 18.4411L20.5929 18.3562C20.4864 18.2713 20.5042 18.1185 20.6284 18.0591C20.6284 18.0591 21.6753 17.6685 21.9148 17.4053C21.9947 17.3119 21.9503 17.1166 21.5866 16.6327C21.5688 16.6072 21.5422 16.5732 21.5245 16.5478C21.4446 16.4459 21.5688 16.31 21.6842 16.378C23.3166 17.2525 25.7653 18.509 26.8477 18.8317C26.9719 18.8656 27.0163 18.9336 27.0429 18.976C27.1937 19.2987 26.8477 20.0713 26.5195 20.8184C26.2533 21.4128 25.9605 22.075 25.8097 22.7033C25.7919 22.7882 25.9073 22.8307 25.9516 22.7542C26.2089 22.2618 26.6259 21.4382 26.8389 20.9543C26.8832 20.8524 26.9276 20.759 26.9719 20.6571C27.0252 20.5382 27.2115 20.5552 27.2381 20.6826L27.6196 22.4231C27.6817 22.7118 27.6551 23.0174 27.522 23.2806C27.2292 23.8835 26.8921 24.4608 26.5106 25.0042C26.3686 25.2165 26.1202 25.3353 25.8541 25.3268C25.4992 25.3183 25.1532 25.3183 24.7983 25.3098C24.6386 25.3098 24.4789 25.3098 24.3192 25.3098Z" fill="#272A24"/>
<path d="M41.0053 17.8842C40.5883 18.0455 39.71 18.2153 39.0002 18.2153C37.8912 18.2153 37.0483 17.9181 36.4096 17.2983C35.5756 16.5172 35.132 15.1503 35.1586 13.5456C35.203 10.1664 37.2169 8.7655 39.2752 8.7655C40.0116 8.7655 40.5528 8.90135 40.8633 9.04568L40.5351 10.5994C40.26 10.4636 39.8874 10.3872 39.4261 10.3872C38.1485 10.3872 37.1282 11.2362 37.1282 13.6475C37.1282 15.8804 38.0331 16.687 38.9115 16.687C39.0801 16.687 39.2131 16.6701 39.2841 16.6361V14.4031H38.4146V12.9258H41.0142V17.8842H41.0053Z" fill="white"/>
<path d="M42.4249 8.84314H44.3147V16.5949H46.7988V18.1231H42.4249V8.84314Z" fill="white"/>
<path d="M53.2222 13.3259C53.2222 16.8239 51.9268 18.2418 50.0814 18.2418C47.89 18.2418 47.0206 16.0174 47.0206 13.4702C47.0206 10.9316 48.0763 8.74111 50.2234 8.74111C52.5568 8.73262 53.2222 11.1948 53.2222 13.3259ZM48.9813 13.4872C48.9813 15.5928 49.3894 16.6711 50.1524 16.6711C50.9509 16.6711 51.2526 15.2872 51.2526 13.4108C51.2526 11.7722 50.9953 10.3033 50.1435 10.3033C49.3894 10.3033 48.9813 11.492 48.9813 13.4872Z" fill="white"/>
<path d="M58.2349 16.009L57.809 18.1316H55.9814L58.0841 8.84314H60.3464L62.2362 18.1231H60.3997L59.9827 16.0005H58.2349V16.009ZM59.8141 14.6081L59.4947 12.6638C59.3971 12.1034 59.2729 11.1695 59.1753 10.5582H59.1398C59.0334 11.178 58.8914 12.1374 58.7938 12.6723L58.4389 14.6081H59.8141Z" fill="white"/>
<path d="M67.7013 17.9861C67.4263 18.105 66.9029 18.2069 66.2463 18.2069C63.771 18.2069 62.5822 16.2541 62.5822 13.6221C62.5822 10.124 64.6139 8.75708 66.4947 8.75708C67.1602 8.75708 67.6215 8.88444 67.8167 9.0033L67.5062 10.5231C67.2844 10.4212 67.0448 10.3363 66.6278 10.3363C65.5543 10.3363 64.5872 11.2278 64.5872 13.5202C64.5872 15.7362 65.4656 16.6022 66.6101 16.6022C66.9295 16.6022 67.2932 16.5343 67.515 16.4664L67.7013 17.9861Z" fill="white"/>
<path d="M70.5051 16.009L70.0793 18.1316H68.2516L70.3543 8.84314H72.6167L74.5065 18.1231H72.6699L72.2529 16.0005H70.5051V16.009ZM72.0844 14.6081L71.765 12.6638C71.6674 12.1034 71.5432 11.1695 71.4456 10.5582H71.4101C71.3036 11.178 71.1617 12.1374 71.0641 12.6723L70.7092 14.6081H72.0844Z" fill="white"/>
<path d="M75.5621 8.97835C76.0323 8.87646 76.7243 8.80005 77.4785 8.80005C78.7028 8.80005 79.5545 9.07174 80.1756 9.62362C81.0096 10.3368 81.4354 11.5679 81.4354 13.3679C81.4354 15.2527 80.9297 16.5772 80.0869 17.2989C79.4215 17.9017 78.4722 18.1989 77.1236 18.1989C76.5292 18.1989 75.9347 18.1395 75.5621 18.097V8.97835ZM77.443 16.6961C77.5406 16.7216 77.6825 16.7216 77.7801 16.7216C78.6939 16.7216 79.4836 15.8725 79.4836 13.3084C79.4836 11.3981 78.969 10.2434 77.8245 10.2434C77.6914 10.2434 77.5672 10.2519 77.443 10.2859V16.6961Z" fill="white"/>
<path d="M86.7232 14.0478H84.5141V16.5609H87.0071V18.1231H82.6243V8.84314H86.8386V10.4054H84.5141V12.5365H86.7232V14.0478Z" fill="white"/>
<path d="M94.229 14.8793C94.1758 13.9878 94.1225 12.7991 94.1403 11.7973H94.1048C93.9274 12.7906 93.6701 13.9368 93.4926 14.6585L92.6498 17.9698H91.3101L90.5027 14.7095C90.3164 13.9623 90.0591 12.8076 89.9083 11.7973H89.8728C89.8462 12.8076 89.7752 13.9793 89.7309 14.8963L89.5623 18.1141H87.9476L88.6485 8.83411H90.6358L91.4077 12.1963C91.6738 13.3765 91.9223 14.3953 92.0908 15.4481H92.1263C92.2772 14.4208 92.4901 13.368 92.7474 12.1963L93.5104 8.83411H95.4977L96.0833 18.1141H94.3976L94.229 14.8793Z" fill="white"/>
<path d="M98.4964 18.1226V14.5736L96.3671 8.8426H98.3811L99.0376 11.0501C99.2239 11.6529 99.4014 12.3406 99.5433 13.0199H99.5699C99.6941 12.3491 99.845 11.6784 100.022 11.0076L100.59 8.83411H102.542L100.377 14.4972V18.1226H98.4964Z" fill="white"/>
</svg>
