<svg width="18" height="17" viewBox="0 0 18 17" fill="none" xmlns="http://www.w3.org/2000/svg">
<path d="M8.63635 -0.00012207C3.88976 -0.00012207 0 3.81054 0 8.42063C0 13.004 3.85431 16.7758 8.63635 16.7758C13.4125 16.7758 17.2727 13.0096 17.2727 8.42063C17.2727 3.81054 13.3829 -0.00012207 8.63635 -0.00012207ZM10.1545 15.6454C9.66872 15.7437 9.15254 15.7929 8.63635 15.7929C8.12017 15.7929 7.60399 15.7437 7.11824 15.6454V13.3453C7.11824 12.7948 7.27005 12.5982 7.47247 12.3328C7.57552 12.2184 7.63772 12.1157 8.09988 11.4384L7.32066 11.3204C5.31668 11.0353 4.52731 10.0228 4.21354 9.23644C3.80871 8.18474 4.02128 6.86746 4.75002 6.03207C4.86137 5.90421 4.95243 5.6879 4.87152 5.46187C4.71958 5.00968 4.73987 4.29217 4.84108 4.01686C5.37769 4.09135 5.92945 4.4647 6.38963 4.7345C6.60166 4.85469 6.71289 4.82294 6.81462 4.8328C7.1844 4.75805 7.7612 4.5772 8.6465 4.5772C9.19299 4.5772 9.76993 4.65579 10.3367 4.81309C10.4381 4.81078 10.6009 4.89449 10.8832 4.7345C11.3642 4.44985 11.8973 4.0893 12.4316 4.01686C12.5328 4.29217 12.5531 5.00968 12.4013 5.46187C12.3203 5.6879 12.4113 5.90421 12.5228 6.03207C13.2514 6.86759 13.464 8.18474 13.0592 9.23644C12.7454 10.0228 11.956 11.0353 9.95205 11.3204L9.17283 11.4384C9.65053 12.1385 9.70087 12.2225 9.80037 12.3328C10.0027 12.5982 10.1545 12.7948 10.1545 13.3453V15.6454ZM11.1665 15.3604V13.3453C11.1665 12.785 11.045 12.4115 10.8831 12.1362C12.4215 11.7333 13.5146 10.8485 14.0003 9.58048C14.5165 8.24375 14.2838 6.65129 13.4234 5.55031C13.5753 4.8918 13.5753 3.83998 13.211 3.34849C13.049 3.13232 12.8263 3.01431 12.543 3.01431C12.5328 3.01431 12.5328 3.01431 12.5328 3.01431C11.7481 3.05552 11.1304 3.43937 10.4682 3.83012C9.86099 3.67282 9.2436 3.59424 8.62621 3.59424C7.9988 3.59424 7.37126 3.68268 6.81475 3.83012C6.11764 3.42183 5.50591 3.0545 4.69942 3.01431C4.4464 3.01431 4.22369 3.13232 4.06173 3.34849C3.69749 3.83998 3.69749 4.8918 3.8493 5.55031C2.98891 6.65129 2.75618 8.25347 3.27237 9.58048C3.75811 10.8485 4.85123 11.7333 6.38963 12.1362C6.26404 12.3496 6.16468 12.6249 6.12554 12.9974C5.8148 13.1015 5.54531 13.1354 5.29467 13.0639C5.03032 12.988 4.82434 12.8166 4.64539 12.5243C4.24346 11.8684 3.55886 11.3331 2.77938 11.4027L2.86833 12.3818C3.22928 12.3497 3.58851 12.7206 3.77511 13.0264C4.08295 13.5299 4.49766 13.8601 5.00805 14.0065C5.38691 14.1149 5.73323 14.1124 6.10617 14.0351V15.3604C3.16101 14.3577 1.01207 11.6251 1.01207 8.42063C1.01207 4.35117 4.4464 0.982845 8.63635 0.982845C12.8263 0.982845 16.2606 4.35117 16.2606 8.42063C16.2606 11.6251 14.1117 14.3577 11.1665 15.3604Z" fill="white"/>
</svg>
