<svg width="18" height="17" viewBox="0 0 18 17" fill="none" xmlns="http://www.w3.org/2000/svg">
<path d="M2.53018 16.8942H14.7425C16.1377 16.8942 17.2727 15.7919 17.2727 14.4368V2.5757C17.2727 1.22067 16.1377 0.118286 14.7425 0.118286H2.53018C1.13502 0.118286 0 1.22067 0 2.5757V14.4368C0 15.7919 1.13502 16.8942 2.53018 16.8942ZM1.01207 2.5757C1.01207 1.76271 1.69311 1.10125 2.53018 1.10125H14.7425C15.5796 1.10125 16.2606 1.76271 16.2606 2.5757V14.4368C16.2606 15.2498 15.5796 15.9113 14.7425 15.9113H2.53018C1.69311 15.9113 1.01207 15.2498 1.01207 14.4368V2.5757Z" fill="white"/>
<path d="M8.63635 12.9297C11.1476 12.9297 13.1907 10.9453 13.1907 8.50636C13.1907 6.06737 11.1476 4.08301 8.63635 4.08301C6.12515 4.08301 4.08203 6.06737 4.08203 8.50636C4.08203 10.9453 6.12515 12.9297 8.63635 12.9297ZM8.63635 5.06597C10.5896 5.06597 12.1786 6.60928 12.1786 8.50636C12.1786 10.4034 10.5896 11.9467 8.63635 11.9467C6.68311 11.9467 5.0941 10.4034 5.0941 8.50636C5.0941 6.60928 6.68311 5.06597 8.63635 5.06597Z" fill="white"/>
<path d="M13.4092 4.82729C14.2363 4.82729 14.9092 4.17373 14.9092 3.37043C14.9092 2.56714 14.2363 1.91357 13.4092 1.91357C12.5821 1.91357 11.9092 2.56714 11.9092 3.37043C11.9092 4.17373 12.5821 4.82729 13.4092 4.82729ZM13.4092 2.88481C13.6848 2.88481 13.9092 3.10271 13.9092 3.37043C13.9092 3.63816 13.6848 3.85605 13.4092 3.85605C13.1335 3.85605 12.9092 3.63816 12.9092 3.37043C12.9092 3.10271 13.1335 2.88481 13.4092 2.88481Z" fill="white"/>
</svg>
