<svg width="18" height="15" viewBox="0 0 18 15" fill="none" xmlns="http://www.w3.org/2000/svg">
<path d="M17.2727 2.62948C16.1862 2.67812 16.2099 2.67415 16.0871 2.68413L16.7306 0.899308C16.7306 0.899308 14.722 1.61695 14.2128 1.74532C12.8755 0.577925 10.8877 0.526345 9.46657 1.37466C8.30282 2.06952 7.67818 3.26278 7.88652 4.65749C5.62162 4.35223 3.7133 3.3095 2.20666 1.55168L1.73014 0.995813L1.37407 1.6309C0.924043 2.4334 0.774605 3.35096 0.953167 4.21452C1.02644 4.56879 1.15097 4.90669 1.32347 5.22308L0.914687 5.06923L0.866192 5.73261C0.817038 6.40648 1.04805 7.19311 1.48424 7.83664C1.60706 8.01788 1.7652 8.2169 1.96563 8.41324L1.75439 8.38175L2.01215 9.14189C2.35096 10.1406 3.05467 10.9133 3.9679 11.3428C3.05585 11.7187 2.31907 11.9586 1.10801 12.3455L0 12.6993L1.02341 13.2427C1.41361 13.4499 2.79242 14.142 4.15477 14.3496C7.18308 14.8108 10.5926 14.4352 12.888 12.4274C14.8213 10.7363 15.4557 8.33069 15.3239 5.82732C15.304 5.44834 15.4109 5.08664 15.6249 4.80903C16.0536 4.25317 17.2701 2.63319 17.2727 2.62948V2.62948ZM14.8157 4.22027C14.4603 4.68117 14.2822 5.2698 14.3141 5.87749C14.4471 8.40262 13.7397 10.3609 12.2114 11.6976C10.4262 13.2592 7.54666 13.8722 4.31146 13.3793C3.72556 13.2901 3.12003 13.0903 2.61887 12.8907C3.63424 12.5514 4.41833 12.249 5.68461 11.6669L7.45231 10.8543L5.50064 10.7329C4.56579 10.6748 3.78737 10.2348 3.30887 9.52036C3.56294 9.50602 3.80792 9.46609 4.05185 9.40004L5.91324 8.89653L4.0363 8.4501C3.12425 8.23316 2.60437 7.70315 2.32882 7.29665C2.14789 7.02954 2.02968 6.75589 1.95878 6.50362C2.14696 6.55264 2.36638 6.58758 2.72021 6.62163L4.45747 6.78853L3.08102 5.74566C2.08924 4.99436 1.6918 3.86561 1.98316 2.78051C5.07842 5.89861 8.71265 5.66426 9.07848 5.74669C8.99796 4.98706 8.99585 4.98527 8.97476 4.91296C8.50629 3.3045 9.53299 2.4878 9.99606 2.21134C10.9633 1.63397 12.4987 1.54694 13.5622 2.49816C13.7919 2.70346 14.1025 2.78422 14.3932 2.71408C14.6541 2.65111 14.8682 2.58443 15.0779 2.51186L14.6414 3.72239L15.1986 3.72278C15.0935 3.85973 14.9673 4.02368 14.8157 4.22027Z" fill="white"/>
</svg>
